<svg xmlns="http://www.w3.org/2000/svg" xmlns:xlink="http://www.w3.org/1999/xlink">
  <defs>
    <symbol fill="none" id="user" stroke="currentColor" stroke-width="2" viewBox="0 0 24 24">
      <path d="M19 21v-2a4 4 0 0 0-4-4H9a4 4 0 0 0-4 4v2"></path>
      <circle cx="12" cy="7" r="4"></circle>
    </symbol>
    <symbol fill="none" id="user-admin" stroke="currentColor" stroke-width="2" viewBox="0 0 24 24">
      <circle cx="10" cy="7" r="4"></circle>
      <path d="M10.3 15H7a4 4 0 0 0-4 4v2"></path>
      <path d="M15 15.5V14a2 2 0 0 1 4 0v1.5"></path>
      <rect height="5" rx=".899" width="8" x="13" y="16"></rect>
    </symbol>
    <symbol fill="none" id="logout" stroke="currentColor" stroke-width="2" viewBox="0 0 24 24">
      <path d="m16 17 5-5-5-5"></path>
      <path d="M21 12H9"></path>
      <path d="M9 21H5a2 2 0 0 1-2-2V5a2 2 0 0 1 2-2h4"></path>
    </symbol>
    <symbol fill="none" id="send" stroke="currentColor" stroke-width="2" viewBox="0 0 24 24">
      <path d="M14.536 21.686a.5.5 0 0 0 .937-.024l6.5-19a.496.496 0 0 0-.635-.635l-19 6.5a.5.5 0 0 0-.024.937l7.93 3.18a2 2 0 0 1 1.112 1.11z"></path>
      <path d="m21.854 2.147-10.94 10.939"></path>
    </symbol>
    <symbol fill="none" id="arrow-left" stroke="currentColor" stroke-width="2" viewBox="0 0 24 24">
      <path d="m12 19-7-7 7-7"></path>
      <path d="M19 12H5"></path>
    </symbol>
    <symbol id="add" stroke="currentColor" stroke-width="2" viewBox="0 0 24 24">
      <path d="M5 12h14"></path>
      <path d="M12 5v14"></path>
    </symbol>
    <symbol id="x" stroke="currentColor" stroke-width="2" viewBox="0 0 24 24">
      <path d="M18 6 6 18"></path>
      <path d="m6 6 12 12"></path>
    </symbol>
    <symbol fill="none" id="write" stroke="currentColor" stroke-width="2" viewBox="0 0 24 24">
      <path d="M21.174 6.812a1 1 0 0 0-3.986-3.987L3.842 16.174a2 2 0 0 0-.5.83l-1.321 4.352a.5.5 0 0 0 .623.622l4.353-1.32a2 2 0 0 0 .83-.497z"></path>
    </symbol>
    <symbol id="google" viewBox="0 0 24 24">
      <path d="M12.48 10.92v3.28h7.84c-.24 1.84-.853 3.187-1.787 4.133-1.147 1.147-2.933 2.4-6.053 2.4-4.827 0-8.6-3.893-8.6-8.72s3.773-8.72 8.6-8.72c2.6 0 4.507 1.027 5.907 2.347l2.307-2.307C18.747 1.44 16.133 0 12.48 0 5.867 0 .307 5.387.307 12s5.56 12 12.173 12c3.573 0 6.267-1.173 8.373-3.36 2.16-2.16 2.84-5.213 2.84-7.667 0-.76-.053-1.467-.173-2.053H12.48z"></path>
    </symbol>
    <symbol id="naver" viewBox="0 0 24 24">
      <path d="M16.273 12.845 7.376 0H0v24h7.726V11.156L16.624 24H24V0h-7.727v12.845Z"></path>
    </symbol>
  </defs>
</svg>
