<svg xmlns="http://www.w3.org/2000/svg" xmlns:xlink="http://www.w3.org/1999/xlink">
  <defs>
    <symbol id="add" stroke="currentColor" stroke-width="2" viewBox="0 0 24 24">
      <path d="M5 12h14"></path>
      <path d="M12 5v14"></path>
    </symbol>
    <symbol id="x" stroke="currentColor" stroke-width="2" viewBox="0 0 24 24">
      <path d="M18 6 6 18"></path>
      <path d="m6 6 12 12"></path>
    </symbol>
    <symbol fill="none" id="write" stroke="currentColor" stroke-width="2" viewBox="0 0 24 24">
      <path d="M21.174 6.812a1 1 0 0 0-3.986-3.987L3.842 16.174a2 2 0 0 0-.5.83l-1.321 4.352a.5.5 0 0 0 .623.622l4.353-1.32a2 2 0 0 0 .83-.497z"></path>
    </symbol>
    <symbol id="google" viewBox="0 0 24 24">
      <path d="M12.48 10.92v3.28h7.84c-.24 1.84-.853 3.187-1.787 4.133-1.147 1.147-2.933 2.4-6.053 2.4-4.827 0-8.6-3.893-8.6-8.72s3.773-8.72 8.6-8.72c2.6 0 4.507 1.027 5.907 2.347l2.307-2.307C18.747 1.44 16.133 0 12.48 0 5.867 0 .307 5.387.307 12s5.56 12 12.173 12c3.573 0 6.267-1.173 8.373-3.36 2.16-2.16 2.84-5.213 2.84-7.667 0-.76-.053-1.467-.173-2.053H12.48z"></path>
    </symbol>
    <symbol id="naver" viewBox="0 0 24 24">
      <path d="M16.273 12.845 7.376 0H0v24h7.726V11.156L16.624 24H24V0h-7.727v12.845Z"></path>
    </symbol>
  </defs>
</svg>
